<?xml version="1.0" encoding="UTF-8"?>
<svg version="1.1" xmlns="http://www.w3.org/2000/svg" width="778" height="835">
<path d="M0 0 C3.7589536 2.10591979 5.362806 2.75529472 9.6171875 1.7109375 C11.27621094 1.15019531 11.27621094 1.15019531 12.96875 0.578125 C32.21386628 -5.86696078 52.98055567 -3.58585383 71.03125 5.265625 C81.28938818 10.56363576 91.11633462 17.73700194 97.59375 27.453125 C100.52901962 27.59837546 103.29363531 27.58164197 106.21875 27.453125 C129.15678503 26.97746648 148.70947465 34.86373392 165.59375 50.453125 C171.25604843 56.32738112 181.59375 68.74626451 181.59375 77.453125 C182.43035156 77.52789062 183.26695312 77.60265625 184.12890625 77.6796875 C204.2558337 79.95316103 222.25210915 89.63600476 235.07421875 105.52734375 C246.68989733 121.65698787 253.28565788 139.74868211 250.70410156 159.6730957 C243.44555827 214.41250727 243.44555827 214.41250727 261.24938583 264.37336636 C275.13127182 281.71722955 292.5025274 296.63368697 310.08050537 310.12712097 C326.33364461 322.62521263 337.7962281 338.37130933 341.29638672 359.13671875 C343.9370493 379.70700327 339.97866316 397.6649046 329.59375 415.453125 C328.82933594 416.34 328.06492187 417.226875 327.27734375 418.140625 C325.34982375 420.26330771 325.34982375 420.26330771 325.75390625 422.56640625 C326.05167969 423.29214844 326.34945312 424.01789063 326.65625 424.765625 C333.62821676 444.42188424 333.17023132 464.96265801 325.15625 484.234375 C319.4917004 495.90334718 311.9834844 505.52394154 301.9543457 513.80712891 C300.14346172 515.99786636 300.29758683 517.18697116 300.44140625 519.99609375 C300.47234375 520.8969873 300.50328125 521.79788086 300.53515625 522.72607422 C300.57511719 523.68787598 300.61507812 524.64967773 300.65625 525.640625 C301.03190395 546.25128141 294.4140947 564.37896347 280.36328125 579.62109375 C275.25887235 584.84069382 270.44525105 589.43104783 263.55078125 592.08203125 C255.96663001 594.74337909 255.96663001 594.74337909 250.61621094 600.30566406 C249.44623729 604.04225649 248.96185942 607.83898765 248.421875 611.70703125 C246.04162241 628.03968624 233.17758514 643.71601863 220.59375 653.453125 C207.26245544 662.4778731 192.44583828 668.49216869 176.20117188 666.54760742 C115.9374443 658.77466594 115.9374443 658.77466594 61.48635864 679.34284973 C45.11732841 693.16203706 30.79016647 709.71910641 17.89344788 726.78742981 C4.84181356 744.04458215 -11.20524019 754.36855431 -32.88671875 758.04296875 C-52.5369168 760.33294743 -71.7322238 756.20508297 -88.06640625 744.90625 C-90.37418735 743.47303703 -91.71651752 742.68396025 -94.40625 742.453125 C-97.5446984 743.16863311 -97.5446984 743.16863311 -100.84375 744.328125 C-119.80637932 750.61237991 -140.93270181 748.87772168 -158.84375 740.140625 C-168.18900385 735.14520052 -180.53625919 727.19310663 -185.40625 717.453125 C-186.67597656 717.48792969 -187.94570312 717.52273438 -189.25390625 717.55859375 C-214.01838404 718.03469428 -234.62988488 712.13965902 -253.09375 694.859375 C-259.24793534 688.45569566 -269.40625 676.79609111 -269.40625 667.453125 C-270.22802734 667.43185547 -270.22802734 667.43185547 -271.06640625 667.41015625 C-290.4231721 666.24560286 -307.34604793 656.03670913 -320.53125 642.328125 C-331.37277437 629.93781143 -340.06064364 612.22005807 -339.31000042 595.28117371 C-339.07280789 592.9203003 -338.78686969 590.57000637 -338.48486328 588.21655273 C-330.97032039 531.70555084 -330.97032039 531.70555084 -349.31679344 480.12706852 C-363.60356117 462.30484058 -381.48607706 446.95963903 -399.58810425 433.12071228 C-414.71508633 421.51149271 -426.45108018 406.1331219 -429.19091797 386.59033203 C-431.32368216 365.42228472 -428.76736318 343.58478788 -415.01953125 326.484375 C-413.00297821 323.44353265 -413.00297821 323.44353265 -414.07421875 319.61328125 C-414.55387576 318.23773593 -415.06135432 316.87163039 -415.59375 315.515625 C-422.39597154 296.9464436 -420.36080217 277.03935439 -412.29980469 259.16552734 C-407.56169603 249.24282502 -399.51043953 236.50521976 -389.40625 231.453125 C-389.3969043 230.77435303 -389.38755859 230.09558105 -389.37792969 229.39624023 C-388.89798982 201.59972313 -383.33045301 179.9032995 -363.04296875 160.15234375 C-359.36546458 156.96929392 -355.82923991 154.55467679 -351.328125 152.71875 C-343.11707162 149.66911848 -343.11707162 149.66911848 -337.92578125 143.140625 C-337.37105162 139.91310717 -336.9993309 136.72178037 -336.69628906 133.46289062 C-335.27227327 123.59546807 -329.57961623 114.02375519 -323.40625 106.453125 C-322.73851562 105.62296875 -322.07078125 104.7928125 -321.3828125 103.9375 C-309.26025799 89.67052249 -292.21765537 79.5482813 -273.40625 77.453125 C-266.92697135 77.39719117 -260.4883178 78.27321738 -254.06060219 79.00525475 C-198.80682627 85.42776565 -198.80682627 85.42776565 -149.21186829 65.41889954 C-132.62292212 51.36572228 -118.06409299 34.59385648 -104.97184753 17.27131653 C-92.16714186 0.39361242 -75.66828835 -10.05085648 -54.34375 -13.296875 C-33.97310435 -14.59024933 -17.48148911 -10.80844757 0 0 Z " fill="#DF125C" transform="translate(429.40625,13.546875)"/>
<path d="M0 0 C0.716185 -0.00832352 1.43237 -0.01664703 2.17025757 -0.02522278 C4.52998352 -0.04924862 6.8894324 -0.05808725 9.24926758 -0.06469727 C10.89968443 -0.07367179 12.55010049 -0.08279378 14.20051575 -0.09205627 C17.65957612 -0.1085305 21.11853993 -0.11624307 24.57763672 -0.11914062 C28.98804766 -0.12451176 33.39753719 -0.16214514 37.80768871 -0.20788479 C41.21801476 -0.23778517 44.62812283 -0.24486704 48.0385685 -0.24586678 C49.66313188 -0.25004619 51.28769729 -0.26238798 52.91213036 -0.28338432 C61.93407545 -0.39068046 70.18361174 -0.41953066 77.70629883 5.30639648 C83.31415854 11.27440744 85.96451371 16.75034523 85.93334961 25.02441406 C85.93364166 25.67863342 85.93393372 26.33285278 85.93423462 27.00689697 C85.93284865 29.15504527 85.91732254 31.30284052 85.90161133 33.45092773 C85.89787858 34.94593618 85.89503284 36.44094709 85.89303589 37.93595886 C85.88542001 41.86016663 85.86578924 45.78422504 85.84362793 49.70837402 C85.82312532 53.71693909 85.81402475 57.72552841 85.80395508 61.73413086 C85.78254128 69.59162107 85.74843021 77.44899017 85.70629883 85.30639648 C86.91660011 85.29640373 86.91660011 85.29640373 88.15135193 85.28620911 C95.78620917 85.22589072 103.4209495 85.18031736 111.05598354 85.15095997 C114.98046033 85.13535922 118.90473885 85.11422442 122.82910156 85.08007812 C126.6222177 85.04728348 130.41514413 85.0295015 134.20839119 85.02176476 C135.64955694 85.01625707 137.09071328 85.00550261 138.53179741 84.98920631 C148.80554795 84.87773517 158.32943579 85.02972885 166.14932251 92.48242188 C173.14026394 100.67220582 173.45343347 109.52605101 173.37036133 119.80639648 C173.37373847 121.29272863 173.37859852 122.77905806 173.38485718 124.26538086 C173.39218651 127.36526035 173.38165257 130.46441452 173.3581543 133.56420898 C173.32966728 137.51169588 173.34609281 141.45748251 173.37601662 145.40490723 C173.39419784 148.46960967 173.38828267 151.53391764 173.37537766 154.59863281 C173.37207337 156.05289925 173.37602432 157.50720306 173.38777542 158.96142578 C173.44821955 168.54064542 172.72572551 176.86623336 165.95108032 184.20874023 C159.77791165 190.05939263 153.38988904 191.74367565 145.13208008 191.64233398 C143.47777933 191.65485363 141.82348244 191.66789107 140.16918945 191.68139648 C137.60011764 191.68530568 135.0314363 191.6814689 132.46240234 191.66674805 C119.13030425 191.62053182 107.57565811 192.60341788 97.45239258 202.36889648 C87.63820227 213.25891526 86.24051424 224.64244736 86.27270508 238.92358398 C86.26812836 240.31161754 86.26281845 241.69964886 86.25682068 243.087677 C86.24794798 245.98050203 86.25024458 248.87305014 86.26025391 251.76586914 C86.27172789 255.43592009 86.25152737 259.10500648 86.22233677 262.77493095 C86.20380961 265.6372362 86.20429976 268.49931735 86.20997429 271.36166763 C86.21019801 273.36043673 86.19345686 275.35918535 86.17616272 277.35787964 C86.27641811 290.66165692 89.68427125 305.16799417 99.01879883 315.18139648 C105.94228899 321.60494097 113.25907753 323.43674465 122.50317383 323.51733398 C124.28443288 323.54541121 126.06568276 323.57407573 127.84692383 323.60327148 C130.64900368 323.6444497 133.45091378 323.68134572 136.25317383 323.70776367 C138.96186557 323.73550098 141.66978375 323.78137927 144.37817383 323.82983398 C145.62229034 323.83471329 145.62229034 323.83471329 146.89154053 323.83969116 C155.22199927 324.01424603 160.7701985 326.76843804 166.90942383 332.40795898 C172.42130981 338.23138635 173.80775001 344.36676736 173.88330078 352.20727539 C173.90255363 353.95531967 173.90255363 353.95531967 173.92219543 355.73867798 C173.92958237 356.99079071 173.9369693 358.24290344 173.94458008 359.53295898 C173.95265182 360.83155853 173.96072357 362.13015808 173.96903992 363.46810913 C173.98402992 366.21677516 173.99388405 368.96541574 174.00146484 371.71411133 C174.01248864 375.20733985 174.04685587 378.69992428 174.08663654 382.19292641 C174.1193338 385.55624236 174.12360111 388.91949656 174.13208008 392.28295898 C174.14958817 393.52292633 174.16709625 394.76289368 174.18513489 396.04043579 C174.16294858 405.02149761 172.7127177 412.59634025 167.83129883 420.24389648 C161.94292804 425.9590799 155.83207844 428.54434042 147.66357422 428.58105469 C146.49117691 428.5905867 145.3187796 428.60011871 144.1108551 428.60993958 C142.85457809 428.60902817 141.59830109 428.60811676 140.30395508 428.60717773 C138.99406113 428.61146286 137.68416718 428.61574799 136.33457947 428.62016296 C133.56155348 428.62760923 130.78865478 428.62734862 128.015625 428.62207031 C124.50608652 428.61632259 120.99708394 428.63309897 117.48763371 428.65641499 C114.0930551 428.67494052 110.69858353 428.67096119 107.30395508 428.66967773 C106.06589615 428.67888748 104.82783722 428.68809723 103.55226135 428.69758606 C94.56537984 428.65096801 86.42873538 427.32697019 77.70629883 425.30639648 C76.31713257 424.99301834 76.31713257 424.99301834 74.89990234 424.67330933 C42.99303848 417.36900566 13.03789405 400.60993892 -5.23510742 372.74780273 C-22.01837428 345.26470494 -24.95196931 315.92971581 -24.75463867 284.27124023 C-24.75224535 281.68437289 -24.7513508 279.09750378 -24.75186157 276.51063538 C-24.7487678 271.14840609 -24.73296424 265.78646967 -24.70532227 260.42431641 C-24.67362262 254.25273819 -24.66333685 248.08141034 -24.66479337 241.9097566 C-24.66601754 235.90825412 -24.65556631 229.90685166 -24.63920975 223.9053669 C-24.63287435 221.37571251 -24.62891054 218.84605097 -24.62742233 216.31638908 C-24.62307113 212.79332026 -24.60553909 209.27056054 -24.58422852 205.74755859 C-24.58558807 204.20228485 -24.58558807 204.20228485 -24.5869751 202.62579346 C-24.49970501 192.72558431 -23.50459815 184.548851 -16.29370117 177.30639648 C-10.69074949 173.03798528 -6.1548616 171.18567023 0.93800354 171.16163635 C2.24343109 171.15473785 3.54885864 171.14783936 4.8938446 171.14073181 C6.34378038 171.13801721 7.7937163 171.13538005 9.24365234 171.1328125 C10.76792592 171.12650748 12.29219764 171.11974174 13.81646729 171.11254883 C17.10021646 171.09787818 20.38395852 171.08615394 23.66772652 171.07660103 C28.85631282 171.06116269 34.0448379 171.03721541 39.23338318 171.01170349 C53.98790627 170.94045757 68.74246396 170.88063675 83.49707031 170.82958984 C91.64476371 170.80132588 99.79239571 170.76596964 107.94002479 170.72293609 C113.10188642 170.69610433 118.2636786 170.67823613 123.42559636 170.66689885 C126.6313556 170.6577986 129.83703008 170.64044973 133.04273987 170.62071991 C134.53350434 170.61322187 136.02429051 170.609162 137.51507378 170.60872459 C139.54393377 170.60764826 141.57277395 170.59327649 143.60157776 170.57814026 C144.73886102 170.57390832 145.87614428 170.56967638 147.04789066 170.5653162 C149.86070436 170.57547843 149.86070436 170.57547843 151.70629883 168.30639648 C152.00647163 165.68341652 152.00647163 165.68341652 151.94921875 162.58740234 C151.95229538 161.38953598 151.95537201 160.19166962 151.95854187 158.95750427 C151.95135635 157.65853714 151.94417084 156.35957001 151.93676758 155.02124023 C151.93557583 153.68127995 151.93512261 152.34131882 151.93537903 151.00135803 C151.9338141 148.19274672 151.92552306 145.38426285 151.91210938 142.57568359 C151.89510309 138.96841729 151.89129549 135.36129092 151.89205456 131.75398922 C151.89178319 128.98741816 151.88630758 126.22087793 151.87905312 123.45431709 C151.87430656 121.47499594 151.87258843 119.49566828 151.87089539 117.51634216 C151.86451553 116.32162796 151.85813568 115.12691376 151.8515625 113.89599609 C151.8477507 112.83835556 151.8439389 111.78071503 151.8400116 110.69102478 C151.97457567 108.35253649 151.97457567 108.35253649 150.70629883 107.30639648 C148.77777922 107.20190505 146.84539899 107.16839903 144.9140625 107.16163635 C143.65515701 107.15473785 142.39625153 107.14783936 141.09919739 107.14073181 C139.69088759 107.13801676 138.28257765 107.13537963 136.87426758 107.1328125 C135.40105492 107.12651059 133.92784418 107.11974519 132.45463562 107.11254883 C129.27345171 107.09784802 126.09227531 107.08613546 122.91107178 107.07660103 C117.8761448 107.06117171 112.84128114 107.03721951 107.80639648 107.01170349 C93.48579921 106.9404497 79.16516471 106.88084305 64.84448242 106.82958984 C56.94174627 106.80123047 49.03907218 106.76581273 41.13640118 106.72293609 C36.13705484 106.69623722 31.13777875 106.67828608 26.13837528 106.66689885 C23.01640286 106.65773145 19.89451506 106.64034923 16.77259254 106.62071991 C15.33153435 106.61328567 13.89045437 106.60916585 12.44937706 106.60872459 C-8.58252684 106.59709133 -8.58252684 106.59709133 -16.29370117 100.30639648 C-21.78719618 94.26861511 -24.53026288 88.91440333 -24.58422852 80.65527344 C-24.59094574 80.00736343 -24.59766296 79.35945343 -24.60458374 78.69190979 C-24.62350948 76.55942002 -24.62748576 74.42724617 -24.62963867 72.29467773 C-24.63607268 70.80120213 -24.64280148 69.30772777 -24.64981079 67.81425476 C-24.66177166 64.68473392 -24.66549308 61.55532333 -24.66430664 58.42578125 C-24.66410405 54.43920731 -24.69134903 50.45335101 -24.72585106 46.4669466 C-24.74822898 43.38088313 -24.7521408 40.29498902 -24.75108719 37.20885277 C-24.753429 35.74060798 -24.76217144 34.27235749 -24.77775192 32.8041935 C-24.86913369 23.29990141 -24.52955857 14.56121759 -18.32885742 6.86889648 C-17.67788086 6.35327148 -17.0269043 5.83764648 -16.35620117 5.30639648 C-15.70780273 4.77014648 -15.0594043 4.23389648 -14.39135742 3.68139648 C-9.64255334 0.56858636 -5.64227975 0.04649729 0 0 Z " fill="#FEFAFB" transform="translate(356.293701171875,172.693603515625)"/>
<path d="M0 0 C0.74086853 0.00719055 1.48173706 0.0143811 2.24505615 0.02178955 C3.02563385 0.0214975 3.80621155 0.02120544 4.61044312 0.02090454 C7.19693015 0.02230065 9.78313101 0.03787491 12.36956787 0.05352783 C14.16032758 0.05725697 15.95108933 0.06010441 17.74185181 0.06210327 C22.46014009 0.06974759 27.17830568 0.08940288 31.89654541 0.11151123 C36.70915059 0.13195251 41.52177556 0.14110131 46.33441162 0.15118408 C55.78108018 0.17264805 65.22765758 0.20679359 74.67425537 0.24884033 C73.53179118 2.56163369 72.35357593 4.81911264 71.08831787 7.06915283 C61.69665855 24.41706503 61.04541962 41.65723013 61.20770264 61.08087158 C61.23675877 64.87428394 61.22824894 68.66630063 61.215271 72.45977783 C61.23461748 95.86241827 63.36076942 119.54134532 79.92034912 137.71368408 C95.05328753 152.26551766 111.56548506 152.53921355 131.2645874 152.78057861 C133.75550819 152.81418214 136.24603448 152.85926046 138.73675537 152.90509033 C139.88821045 152.91300598 139.88821045 152.91300598 141.06292725 152.92108154 C146.44848653 153.02307149 146.44848653 153.02307149 148.67425537 155.24884033 C148.92822266 157.75372314 148.92822266 157.75372314 148.93304443 160.95196533 C148.93934875 162.146604 148.94565308 163.34124268 148.95214844 164.57208252 C148.94607574 166.51582764 148.94607574 166.51582764 148.93988037 168.49884033 C148.94122715 169.83640615 148.9431678 171.1739715 148.94567871 172.51153564 C148.94862937 175.315945 148.94433431 178.12022702 148.93499756 180.92462158 C148.92360291 184.52288955 148.93016271 188.12085919 148.94214249 191.71911621 C148.94936273 194.48144792 148.94707243 197.24370866 148.9418869 200.00604248 C148.93990012 201.97922967 148.94598379 203.95241959 148.95214844 205.92559814 C148.94269196 207.71755615 148.94269196 207.71755615 148.93304443 209.54571533 C148.93145325 210.60113525 148.92986206 211.65655518 148.92822266 212.74395752 C148.67425537 215.24884033 148.67425537 215.24884033 146.67425537 217.24884033 C144.42889404 217.51626587 144.42889404 217.51626587 141.59222412 217.53936768 C140.52931152 217.55212738 139.46639893 217.56488708 138.37127686 217.57803345 C136.63406372 217.58137192 136.63406372 217.58137192 134.86175537 217.58477783 C133.06556763 217.59476303 133.06556763 217.59476303 131.23309326 217.60494995 C128.6841994 217.61510235 126.13527881 217.61976618 123.58636475 217.6194458 C119.74539898 217.62376042 115.90563805 217.65988945 112.06488037 217.69805908 C98.36729221 217.76141446 85.84565916 217.09064903 72.67425537 213.24884033 C71.240979 212.87154785 71.240979 212.87154785 69.77874756 212.4866333 C67.5135289 211.87822169 65.28274396 211.2140761 63.04925537 210.49884033 C62.27130615 210.24989014 61.49335693 210.00093994 60.6918335 209.7444458 C35.34472318 201.29369035 13.77022878 184.32720993 1.67425537 160.24884033 C-7.41655769 140.6457802 -7.78417374 120.72616062 -7.69578958 99.45040512 C-7.68430124 96.02945787 -7.68859471 92.60852209 -7.6905365 89.18756104 C-7.69141216 83.46574928 -7.68047733 77.7440577 -7.66192627 72.02227783 C-7.64060704 65.40880387 -7.63728725 58.7955035 -7.64348823 52.18200207 C-7.64917299 45.79073486 -7.64355718 39.39952866 -7.63231468 33.00827026 C-7.62767336 30.29697541 -7.62679258 27.58571791 -7.62890053 24.87442017 C-7.62926934 21.10719661 -7.61670827 17.34024234 -7.60040283 13.57305908 C-7.60288025 12.44903687 -7.60535767 11.32501465 -7.60791016 10.16693115 C-7.60082535 9.1468396 -7.59374054 8.12674805 -7.58644104 7.07574463 C-7.58438817 6.18654831 -7.5823353 5.29735199 -7.58022022 4.38121033 C-7.02143481 -0.30111392 -4.00229294 0.01628039 0 0 Z " fill="#DF125C" transform="translate(360.32574462890625,363.75115966796875)"/>
<path d="M0 0 C3.84017846 1.78842456 6.52731678 4.22487268 9.49951172 7.19311523 C10.03665802 7.72193802 10.57380432 8.2507608 11.12722778 8.79560852 C12.90019245 10.5444962 14.66542364 12.30093169 16.4296875 14.05859375 C17.66505769 15.28499066 18.90050196 16.51131295 20.13601685 17.73756409 C22.7270653 20.31212254 25.31368599 22.89104399 27.89794922 25.47241211 C31.18998191 28.75908384 34.49781682 32.02933267 37.80998039 35.29569912 C40.37007203 37.82584718 42.91863886 40.36737432 45.46429825 42.91203499 C46.67768347 44.12124646 47.89514163 45.32638658 49.11690903 46.52712822 C56.19888985 53.49693279 61.73630885 59.89114806 66 69 C66.73367295 70.30155321 67.47943252 71.5965072 68.24609375 72.87890625 C68.60018311 73.47566162 68.95427246 74.07241699 69.3190918 74.68725586 C69.6881665 75.30608643 70.05724121 75.92491699 70.4375 76.5625 C76.73010914 87.19113112 82.88068746 97.90129542 89.04443359 108.60498047 C92.19332054 114.0716998 95.34683264 119.53574887 98.5 125 C99.7500235 127.16665311 101.00002347 129.33331979 102.25 131.5 C102.86875 132.5725 103.4875 133.645 104.125 134.75 C111 146.66666667 117.875 158.58333333 124.75 170.5 C125.67969604 172.11128784 125.67969604 172.11128784 126.62817383 173.75512695 C127.86802723 175.90445415 129.1074535 178.05402781 130.34643555 180.20385742 C133.27163763 185.27834489 136.20111723 190.35021617 139.14590454 195.4133606 C140.5354863 197.80315668 141.92262172 200.19436836 143.30957031 202.58569336 C144.28863253 204.27140589 145.27122606 205.95506587 146.25390625 207.63867188 C146.846875 208.66154297 147.43984375 209.68441406 148.05078125 210.73828125 C148.57325439 211.63587158 149.09572754 212.53346191 149.6340332 213.45825195 C150.9581544 215.92213502 152.01706574 218.38364731 153 221 C138.21526877 225.54914807 119.35507678 220.4271307 106 214 C89.44370323 204.54221547 77.45813871 191.60007732 70 174 C70 173.34 70 172.68 70 172 C69.45214844 171.98582031 68.90429688 171.97164062 68.33984375 171.95703125 C48.9830779 170.79247786 32.06020207 160.58358413 18.875 146.875 C5.0215931 131.04253498 -0.19405759 112.44829932 -0.11352539 91.72851562 C-0.11367142 90.73248322 -0.11381744 89.73645081 -0.1139679 88.7102356 C-0.11327534 85.44221767 -0.10551386 82.17425788 -0.09765625 78.90625 C-0.09578974 76.630819 -0.09436693 74.3553876 -0.09336853 72.07995605 C-0.08956174 66.10907876 -0.07974723 60.13822603 -0.06866455 54.1673584 C-0.05841082 48.06730481 -0.05386244 41.96724723 -0.04882812 35.8671875 C-0.03812325 23.91144758 -0.021069 11.95572584 0 0 Z " fill="#31B07C" transform="translate(90,509)"/>
<path d="M0 0 C11.21925333 8.76552392 18.22526442 19.22496419 24.21484375 31.96875 C24.21484375 32.62875 24.21484375 33.28875 24.21484375 33.96875 C25.05144531 34.04351562 25.88804687 34.11828125 26.75 34.1953125 C46.87692745 36.46878603 64.8732029 46.15162976 77.6953125 62.04296875 C90.01089907 79.14451191 94.41135967 96.52908519 94.32836914 117.28369141 C94.32851517 118.26050873 94.32866119 119.23732605 94.32881165 120.2437439 C94.3281213 123.43595693 94.32037048 126.62810981 94.3125 129.8203125 C94.3106327 132.04804452 94.30921027 134.27577695 94.30821228 136.50350952 C94.30441171 142.3395503 94.29460266 148.17556582 94.2835083 154.01159668 C94.27324106 159.97777973 94.26870332 165.9439669 94.26367188 171.91015625 C94.25297799 183.59636521 94.2359314 195.2825555 94.21484375 206.96875 C89.95506378 203.37185162 85.80696736 199.7078711 81.79296875 195.83496094 C81.29910172 195.35890915 80.80523468 194.88285736 80.29640198 194.39237976 C75.73410434 189.98512994 71.20523731 185.54348735 66.68608093 181.09205246 C63.67479375 178.12648325 60.6541559 175.17228513 57.60595703 172.24462891 C42.44095605 157.66408645 30.34221471 143.89028906 20.7902832 125.00646973 C17.96051759 119.55019224 14.81703943 114.27318444 11.71484375 108.96875 C10.46357322 106.80281683 9.21342154 104.63623655 7.96484375 102.46875 C7.34609375 101.39625 6.72734375 100.32375 6.08984375 99.21875 C-5.78515625 78.63541667 -17.66015625 58.05208333 -29.53515625 37.46875 C-30.15479248 36.39471924 -30.77442871 35.32068848 -31.4128418 34.21411133 C-32.65390879 32.06291776 -33.89495718 29.91171345 -35.13598633 27.76049805 C-38.05013969 22.70912001 -40.96447443 17.6578469 -43.87948608 12.60696411 C-44.91189103 10.81808082 -45.94423581 9.02916283 -46.9765625 7.24023438 C-48.27201573 4.99537364 -49.56758195 2.7505781 -50.86328125 0.50585938 C-53.84823539 -4.66696774 -56.82760942 -9.84270009 -59.78515625 -15.03125 C-38.28866651 -18.98609381 -17.44320223 -12.72155001 0 0 Z " fill="#31B07C" transform="translate(586.78515625,57.03125)"/>
<path d="M0 0 C2.37609375 0.00747651 4.75219373 0.01316276 7.1282959 0.01715088 C13.3293818 0.03229615 19.53008252 0.07148045 25.73101807 0.1159668 C32.07974032 0.15716115 38.42852587 0.17521313 44.77734375 0.1953125 C57.19548011 0.2379869 69.61333281 0.30610113 82.03125 0.390625 C78.42963132 4.65632247 74.76001466 8.80915671 70.8815918 12.82836914 C70.40393372 13.32384247 69.92627563 13.8193158 69.43414307 14.32980347 C65.01646573 18.90239379 60.56451112 23.44166409 56.10274029 27.97119999 C53.12931875 30.99038088 50.16729387 34.01894877 47.23168945 37.07495117 C32.90858001 51.97008762 19.65748172 63.87251584 0.89060974 72.95336914 C-4.17970628 75.50196116 -9.03031896 78.42955068 -13.90625 81.328125 C-15.56539429 82.29878906 -15.56539429 82.29878906 -17.25805664 83.2890625 C-18.12293701 83.79695313 -18.98781738 84.30484375 -19.87890625 84.828125 C-26.18445419 88.5227581 -32.51169436 92.17915181 -38.84375 95.828125 C-39.92390381 96.45066162 -41.00405762 97.07319824 -42.11694336 97.71459961 C-44.30671334 98.97639326 -46.49657355 100.23803034 -48.68652344 101.49951172 C-54.11534942 104.62742648 -59.54194281 107.75920948 -64.96875 110.890625 C-67.13540583 112.14064379 -69.3020725 113.39064378 -71.46875 114.640625 C-72.54125 115.259375 -73.61375 115.878125 -74.71875 116.515625 C-84.46875 122.140625 -84.46875 122.140625 -87.72314453 124.01806641 C-89.8752713 125.25974027 -92.02729073 126.50160022 -94.17919922 127.74365234 C-99.21905977 130.65229323 -104.25992492 133.55914398 -109.30474854 136.45916748 C-111.08624578 137.48338165 -112.86739322 138.50820151 -114.6484375 139.53320312 C-116.87951625 140.81695875 -119.11124573 142.09958439 -121.34375 143.38085938 C-125.81088648 145.95258871 -130.24490395 148.5401 -134.5859375 151.3203125 C-137.96875 153.390625 -137.96875 153.390625 -139.96875 153.390625 C-140.77584613 128.40479131 -137.17133778 107.13677759 -119.73828125 88.22265625 C-114.60957133 82.97820675 -109.74952714 78.45387736 -102.890625 75.65625 C-94.67957162 72.60661848 -94.67957162 72.60661848 -89.48828125 66.078125 C-88.93355162 62.85060717 -88.5618309 59.65928037 -88.25878906 56.40039062 C-86.83477327 46.53296807 -81.14211623 36.96125519 -74.96875 29.390625 C-74.30101563 28.56046875 -73.63328125 27.7303125 -72.9453125 26.875 C-53.33646592 3.79744049 -28.54689818 -0.26636825 0 0 Z " fill="#31B07C" transform="translate(180.96875,90.609375)"/>
<path d="M0 0 C0.99 0.495 0.99 0.495 2 1 C2.88423186 25.59524923 -1.08764569 46.57166873 -18.23046875 65.16796875 C-23.33487765 70.38756882 -28.14849895 74.97792283 -35.04296875 77.62890625 C-42.62711999 80.29025409 -42.62711999 80.29025409 -47.97753906 85.85253906 C-49.14751271 89.58913149 -49.63189058 93.38586265 -50.171875 97.25390625 C-52.55212759 113.58656124 -65.41616486 129.26289363 -78 139 C-91.92992015 148.42999345 -106.64014769 153.1754567 -123.50341797 153.11352539 C-125.07018028 153.11374443 -125.07018028 153.11374443 -126.66859436 153.1139679 C-130.10981344 153.11327305 -133.55097792 153.10550066 -136.9921875 153.09765625 C-139.38257823 153.09579055 -141.77296935 153.09436736 -144.1633606 153.09336853 C-150.44662537 153.08955532 -156.72986694 153.07973522 -163.01312256 153.06866455 C-169.42801601 153.05842473 -175.84291323 153.0538654 -182.2578125 153.04882812 C-194.83855155 153.03811189 -207.41927454 153.02124277 -220 153 C-216.34925445 148.66056268 -212.61194003 144.47630998 -208.62817383 140.43530273 C-208.12802765 139.92697906 -207.62788147 139.4186554 -207.11257935 138.89492798 C-205.48035971 137.23819241 -203.84428447 135.58535445 -202.20703125 133.93359375 C-201.64153753 133.36277636 -201.07604382 132.79195896 -200.49341393 132.20384407 C-197.50133766 129.1851876 -194.50569393 126.17011832 -191.50756836 123.1574707 C-189.04604466 120.68260805 -186.59199584 118.20068385 -184.14428711 115.7121582 C-181.16599932 112.68423985 -178.17533073 109.6690767 -175.1756649 106.66234016 C-174.04444305 105.52446199 -172.91743248 104.38237904 -171.79502296 103.23580742 C-165.11317979 96.41836002 -158.68766939 91.16738721 -150 87 C-148.21153758 85.98623031 -146.43056444 84.95904177 -144.66015625 83.9140625 C-143.75716797 83.38425781 -142.85417969 82.85445312 -141.92382812 82.30859375 C-140.97958984 81.75300781 -140.03535156 81.19742188 -139.0625 80.625 C-130.07462741 75.35800472 -121.05169617 70.15617538 -112 65 C-102.27855571 59.46049429 -92.5910467 53.86624798 -82.93310547 48.21655273 C-72.4193497 42.068295 -61.86670394 35.98802071 -51.31298828 29.90869141 C-42.54594505 24.85778912 -33.78248725 19.80066501 -25.01953125 14.74267578 C-23.03532706 13.597523 -21.05095704 12.45265748 -19.06640625 11.30810547 C-16.39786935 9.76888524 -13.73007517 8.22838621 -11.0625 6.6875 C-10.28140869 6.23729492 -9.50031738 5.78708984 -8.69555664 5.32324219 C-7.98262451 4.91106445 -7.26969238 4.49888672 -6.53515625 4.07421875 C-5.920354 3.71932373 -5.30555176 3.36442871 -4.67211914 2.9987793 C-3.08339137 2.04981079 -1.53976458 1.02650972 0 0 Z " fill="#31B07C" transform="translate(728,528)"/>
<path d="M0 0 C5.13911729 4.30114173 9.94823166 8.80772784 14.67527771 13.55502319 C15.41629811 14.29518917 16.15731851 15.03535514 16.92079407 15.79795039 C19.38894689 18.26446364 21.85352215 20.73452002 24.31811523 23.20458984 C26.09230934 24.97906618 27.86672398 26.75332204 29.64134216 28.52737427 C33.45417577 32.33998058 37.26547732 36.15410798 41.07537651 39.96964645 C46.58376495 45.48618288 52.09493251 50.99993605 57.60676909 56.51302703 C66.55059602 65.4590393 75.49219031 74.40727962 84.43237305 83.35693359 C93.11381433 92.04756239 101.79631161 100.73713395 110.48022461 109.42529297 C111.01604475 109.96137583 111.55186489 110.49745869 112.103922 111.04978649 C114.79214315 113.73931274 117.48038501 116.42881829 120.16863716 119.11831355 C142.44896879 141.40900168 164.72563639 163.70334815 187 186 C184.42178861 188.57821139 182.17300626 189.02434808 178.6875 190.0625 C177.55699219 190.40410156 176.42648437 190.74570312 175.26171875 191.09765625 C155.70920822 196.50679389 134.79941775 193.29772104 117.11328125 183.84375 C112.70482825 181.23297231 108.8278769 178.39785758 105 175 C104.24847656 174.39929688 103.49695313 173.79859375 102.72265625 173.1796875 C93.74653809 165.29466961 88.60723571 154.60947044 82.85742188 144.31152344 C79.81348836 138.88461568 76.68197403 133.50870684 73.5625 128.125 C72.3027192 125.94048823 71.04360744 123.7555905 69.78515625 121.5703125 C66.02644622 115.04513762 62.26363919 108.52233275 58.5 102 C54.73636081 95.47766725 50.97355378 88.95486238 47.21484375 82.4296875 C40.63077062 71.0030086 34.02011436 59.59304538 27.35717773 48.2121582 C24.13090845 42.68980971 20.93724698 37.1503389 17.77734375 31.58984375 C17.42052017 30.96251343 17.06369659 30.33518311 16.69606018 29.68884277 C14.96082966 26.63709063 13.22936981 23.5833015 11.50415039 20.52587891 C8.22722279 14.75262346 4.8741474 9.13348618 1.04882812 3.70483398 C0 2 0 2 0 0 Z " fill="#E9B22B" transform="translate(150,568)"/>
<path d="M0 0 C0.99 0.495 0.99 0.495 2 1 C-21.40062175 24.44635604 -44.80647628 47.88747352 -68.21940707 71.32153773 C-70.98078206 74.08541426 -73.74211347 76.84933431 -76.50341797 79.61328125 C-77.05316647 80.16355437 -77.60291496 80.71382749 -78.16932251 81.28077555 C-87.08163386 90.20179985 -95.99040785 99.12634868 -104.89788948 108.05219507 C-114.03148707 117.204467 -123.16885268 126.35296417 -132.30975926 135.49793625 C-137.95432437 141.14525155 -143.59589657 146.79552348 -149.23372819 152.44956112 C-153.55030343 156.77791477 -157.87209899 161.10101659 -162.19591904 165.4221344 C-163.97387439 167.20064266 -165.75010008 168.98088189 -167.52451324 170.76292419 C-169.93649798 173.18477474 -172.35447487 175.60047446 -174.7741394 178.01464844 C-175.83930261 179.08855017 -175.83930261 179.08855017 -176.92598426 180.18414688 C-177.89337459 181.14556406 -177.89337459 181.14556406 -178.88030815 182.12640381 C-179.43849704 182.68535213 -179.99668592 183.24430046 -180.57178962 183.82018661 C-182 185 -182 185 -184 185 C-184.81942948 182.48123707 -185.63065069 179.9602933 -186.4375 177.4375 C-186.78264648 176.38079102 -186.78264648 176.38079102 -187.13476562 175.30273438 C-193.37236178 155.68594646 -190.13550082 134.91761821 -180.97363281 116.80566406 C-173.62898246 103.18454219 -162.70929674 93.80113287 -149.42822266 86.36669922 C-146.6616725 84.80957598 -143.91440792 83.22123075 -141.16796875 81.62890625 C-135.59432189 78.39829659 -130.01201329 75.18301936 -124.42724609 71.97167969 C-118.94844203 68.81974768 -113.47438887 65.65959203 -108 62.5 C-105.83335774 61.2499577 -103.66669103 59.99995776 -101.5 58.75 C-100.4275 58.13125 -99.355 57.5125 -98.25 56.875 C-62.5 36.25 -62.5 36.25 -59.24780273 34.3737793 C-57.08840605 33.1279423 -54.92906331 31.88201182 -52.76977539 30.63598633 C-47.24232403 27.44651047 -41.71384879 24.25883115 -36.18359375 21.07421875 C-35.06275391 20.42839844 -33.94191406 19.78257812 -32.78710938 19.1171875 C-30.58188806 17.84677429 -28.37617152 16.57722027 -26.16992188 15.30859375 C-21.31040058 12.50950948 -16.46473678 9.69332558 -11.66015625 6.80078125 C-10.86359619 6.32294189 -10.06703613 5.84510254 -9.24633789 5.3527832 C-7.79198292 4.4769457 -6.34164751 3.59438396 -4.89624023 2.70385742 C-3.29887159 1.74239245 -1.65356598 0.86123228 0 0 Z " fill="#E9B22B" transform="translate(200,152)"/>
<path d="M0 0 C7.28288294 7.28288294 7.93084997 20.57975322 8.25 30.5 C8.01312497 51.37132215 0.106861 70.62761259 -14.125 85.8125 C-19.74845392 91.12739678 -25.87849975 94.91962193 -32.58789062 98.64941406 C-36.41944349 100.79477342 -40.21074282 103.00919964 -44.00952148 105.21191406 C-47.37387631 107.16054917 -50.74282227 109.10100655 -54.11328125 111.0390625 C-60.74590859 114.85294024 -67.37351383 118.67546481 -74 122.5 C-76.16664226 123.7500423 -78.33330897 125.00004224 -80.5 126.25 C-81.5725 126.86875 -82.645 127.4875 -83.75 128.125 C-119.5 148.75 -119.5 148.75 -122.75219727 150.6262207 C-124.91159395 151.8720577 -127.07093669 153.11798818 -129.23022461 154.36401367 C-134.75767597 157.55348953 -140.28615121 160.74116885 -145.81640625 163.92578125 C-146.93716553 164.571521 -148.0579248 165.21726074 -149.21264648 165.88256836 C-151.41880124 167.15358748 -153.62533478 168.42394941 -155.83227539 169.69360352 C-160.67627672 172.48485361 -165.50875119 175.2908789 -170.3046875 178.1640625 C-171.09673584 178.63739014 -171.88878418 179.11071777 -172.70483398 179.59838867 C-174.14541391 180.46242158 -175.58269773 181.33198539 -177.01586914 182.20825195 C-181.66998719 185 -181.66998719 185 -185 185 C-123.95 123.95 -62.9 62.9 0 0 Z " fill="#E9B22B" transform="translate(753,435)"/>
<path d="M0 0 C7.13488577 6.1173204 12.90273529 12.1828736 17.5625 20.375 C18.31213013 21.65769775 18.31213013 21.65769775 19.0769043 22.96630859 C20.73052813 25.80376814 22.36553445 28.65146776 24 31.5 C25.19189292 33.55776419 26.38462318 35.61504356 27.578125 37.671875 C30.75660251 43.15865736 33.91873729 48.65468787 37.07666016 54.15332031 C40.21054207 59.60638623 43.35574277 65.05291228 46.5 70.5 C47.75005639 72.66663414 49.00005634 74.83330083 50.25 77 C51.178125 78.60875 51.178125 78.60875 52.125 80.25 C57.75 90 57.75 90 59.62524414 93.25048828 C60.87435518 95.41557071 62.12354129 97.58060982 63.37280273 99.74560547 C66.51202309 105.18615706 69.64990563 110.62747216 72.78515625 116.0703125 C78.97511274 126.81309339 85.18416636 137.5439691 91.4375 148.25 C92.58338858 150.21611364 93.72922411 152.18225819 94.875 154.1484375 C96.80097746 157.45228354 98.73757495 160.74930259 100.6875 164.0390625 C101.43768224 165.31760142 102.18769878 166.59623759 102.9375 167.875 C103.56527344 168.93460938 104.19304687 169.99421875 104.83984375 171.0859375 C105.22269531 171.88257813 105.60554687 172.67921875 106 173.5 C105.67 174.16 105.34 174.82 105 175.5 C104.61565296 175.11527324 104.23130593 174.73054649 103.83531201 174.33416134 C81.07472176 151.55121127 58.31153573 128.77085842 35.54495747 105.99389214 C32.81364404 103.26132795 30.0823524 100.52874199 27.35107422 97.79614258 C26.80730695 97.252113 26.26353968 96.70808342 25.70329462 96.1475681 C16.88937617 87.32929388 8.07722498 78.50925564 -0.73427866 69.68856854 C-9.77028045 60.64322763 -18.80816883 51.59977501 -27.84782517 42.55808634 C-33.42934853 36.97518828 -39.00938081 31.39080833 -44.5875373 25.80454623 C-48.8591856 21.52700581 -53.13345112 17.25209058 -57.40872192 12.97817039 C-59.16644774 11.22016827 -60.92330941 9.46130167 -62.67926407 7.70153046 C-65.06724428 5.30861254 -67.45824594 2.9187561 -69.85006714 0.52967834 C-70.55239405 -0.1755614 -71.25472095 -0.88080115 -71.97833049 -1.6074118 C-72.61629058 -2.24338085 -73.25425068 -2.87934989 -73.91154289 -3.53459072 C-74.73971293 -4.36333034 -74.73971293 -4.36333034 -75.58461368 -5.20881218 C-76.98972771 -6.60836727 -76.98972771 -6.60836727 -79 -7.5 C-79 -8.16 -79 -8.82 -79 -9.5 C-76.62683882 -10.31822733 -74.2517058 -11.12968707 -71.875 -11.9375 C-71.20984375 -12.16759766 -70.5446875 -12.39769531 -69.859375 -12.63476562 C-46.30819774 -20.60060499 -19.62656435 -14.71150707 0 0 Z " fill="#E9B22B" transform="translate(513,26.5)"/>
<path d="M0 0 C9.398215 7.10120718 17.0474523 16.00647377 19.4453125 27.84765625 C19.53109959 29.68034972 19.56304591 31.51589057 19.55883789 33.35058594 C19.55872459 35.00184479 19.55872459 35.00184479 19.55860901 36.6864624 C19.55344772 37.86887512 19.54828644 39.05128784 19.54296875 40.26953125 C19.5415538 41.48465393 19.54013885 42.69977661 19.53868103 43.95172119 C19.53308238 47.83372456 19.5205301 51.71567031 19.5078125 55.59765625 C19.50279733 58.22916583 19.49823445 60.86067632 19.49414062 63.4921875 C19.48311339 69.94403008 19.46637658 76.39583905 19.4453125 82.84765625 C11.99310815 82.97541428 4.54119067 83.06240628 -2.91186523 83.12231445 C-5.44224603 83.14731343 -7.97255569 83.18132405 -10.50268555 83.22485352 C-41.75479389 83.74870073 -41.75479389 83.74870073 -55.3359375 72.01953125 C-64.91122793 62.64653569 -69.56664386 53.22424709 -70.5546875 39.84765625 C-70.69713441 26.17275311 -66.4613749 16.16483329 -57.5546875 5.84765625 C-42.00621192 -9.27366341 -18.31318639 -11.9830657 0 0 Z " fill="#FEFEFE" transform="translate(283.5546875,274.15234375)"/>
<path d="M0 0 C13.40233419 6.28083604 30.12744876 23.37689972 35.2265625 37.265625 C36.78452204 42.79988088 37.76449763 48.39251024 38.54931641 54.08398438 C39.18175193 58.17597243 40.35109244 62.00737973 41.625 65.9375 C43.45091179 71.91301107 45.01584811 77.9311356 46.5 84 C47.96420737 89.98690584 49.51750124 95.91634514 51.3125 101.8125 C53.99807002 110.65395456 56.24376711 119.60790906 58.52490234 128.55990601 C60.49590753 136.28685941 62.49938215 143.99216376 64.8125 151.625 C66.85460935 158.36534067 68.52674506 165.11283259 70 172 C50.05515136 171.48378039 32.39415539 160.93079362 18.875 146.875 C5.0215931 131.04253498 -0.19405759 112.44829932 -0.11352539 91.72851562 C-0.11367142 90.73248322 -0.11381744 89.73645081 -0.1139679 88.7102356 C-0.11327534 85.44221767 -0.10551386 82.17425788 -0.09765625 78.90625 C-0.09578974 76.630819 -0.09436693 74.3553876 -0.09336853 72.07995605 C-0.08956174 66.10907876 -0.07974723 60.13822603 -0.06866455 54.1673584 C-0.05841082 48.06730481 -0.05386244 41.96724723 -0.04882812 35.8671875 C-0.03812325 23.91144758 -0.021069 11.95572584 0 0 Z " fill="#3DBEE8" transform="translate(90,509)"/>
<path d="M0 0 C20.08637413 1.79508428 37.06337518 10.23750112 51 25 C65.11499815 42.49370636 70.20175261 61.25072357 70.11352539 83.31494141 C70.11367142 84.29175873 70.11381744 85.26857605 70.1139679 86.2749939 C70.11327755 89.46720693 70.10552673 92.65935981 70.09765625 95.8515625 C70.09578895 98.07929452 70.09436652 100.30702695 70.09336853 102.53475952 C70.08956796 108.3708003 70.07975891 114.20681582 70.06866455 120.04284668 C70.05839731 126.00902973 70.05385957 131.9752169 70.04882812 137.94140625 C70.03813424 149.62761521 70.02108765 161.3138055 70 173 C68.89535271 172.05344431 67.79074652 171.10684066 66.68615723 170.16021729 C66.07102516 169.63308262 65.4558931 169.10594795 64.82212067 168.56283951 C47.61614837 153.80521463 35.371344 142.52086797 31.58935547 119.28369141 C30.58243114 113.67344606 28.97888337 108.23259583 27.4375 102.75 C26.85039026 100.57879256 26.26571703 98.40692467 25.68359375 96.234375 C23.89294125 89.59476219 22.08275083 82.96056001 20.26928711 76.32714844 C18.3288602 69.22273392 16.41168979 62.11219598 14.5 55 C12.30329772 46.8301473 10.09963678 38.66229486 7.875 30.5 C7.51220947 29.1682373 7.51220947 29.1682373 7.14208984 27.80957031 C5.94804202 23.43652195 4.74173462 19.06729882 3.515625 14.703125 C3.28117676 13.86716797 3.04672852 13.03121094 2.80517578 12.16992188 C2.363246 10.597629 1.91903774 9.02597412 1.47216797 7.45507812 C0 2.22016104 0 2.22016104 0 0 Z " fill="#3DBEE8" transform="translate(611,91)"/>
<path d="M0 0 C-0.78222476 19.8685088 -10.44716876 37.02727642 -24.625 50.625 C-39.08450259 63.11977628 -56.50784645 69.18328769 -75.50341797 69.11352539 C-77.07018028 69.11374443 -77.07018028 69.11374443 -78.66859436 69.1139679 C-82.10981344 69.11327305 -85.55097792 69.10550066 -88.9921875 69.09765625 C-91.38257823 69.09579055 -93.77296935 69.09436736 -96.1633606 69.09336853 C-102.44662537 69.08955532 -108.72986694 69.07973522 -115.01312256 69.06866455 C-121.42801601 69.05842473 -127.84291323 69.0538654 -134.2578125 69.04882812 C-146.83855155 69.03811189 -159.41927454 69.02124277 -172 69 C-171.05639259 67.89395179 -170.11203664 66.78854217 -169.16737366 65.68339539 C-168.64156739 65.06775065 -168.11576113 64.45210592 -167.57402134 63.81780529 C-163.87459645 59.54541459 -159.94871509 55.48562388 -156.00756836 51.43774414 C-154.96418453 50.35769342 -153.9298714 49.26880284 -152.9050293 48.17114258 C-145.56473067 40.32056209 -139.76831633 36.27769058 -129 34 C-126.51386078 33.35178115 -124.02953609 32.69657127 -121.546875 32.03515625 C-119.61350571 31.54420417 -117.68012435 31.05329048 -115.74584961 30.56591797 C-106.95686622 28.34905146 -98.17524264 26.13291829 -89.5 23.5 C-81.56116536 21.09232064 -73.53669581 19.04973712 -65.5 17 C-53.32408124 13.90434997 -53.32408124 13.90434997 -41.25 10.4375 C-32.54078535 7.79314778 -23.72984147 5.56255446 -14.90917969 3.32202148 C-13.78543945 3.03528564 -12.66169922 2.7485498 -11.50390625 2.453125 C-10.49142822 2.19692383 -9.4789502 1.94072266 -8.43579102 1.67675781 C-2.40079365 0 -2.40079365 0 0 0 Z " fill="#3DBEE8" transform="translate(680,612)"/>
<path d="M0 0 C1.56676231 -0.00021904 1.56676231 -0.00021904 3.16517639 -0.0004425 C6.60639547 0.00025234 10.04755995 0.00802473 13.48876953 0.01586914 C15.87916026 0.01773484 18.26955138 0.01915803 20.65994263 0.02015686 C26.9432074 0.02397007 33.22644897 0.03379017 39.50970459 0.04486084 C45.92459804 0.05510066 52.33949526 0.05965999 58.75439453 0.06469727 C71.33513359 0.0754135 83.91585657 0.09228262 96.49658203 0.11352539 C96.09282915 0.58428246 95.68907627 1.05503952 95.27308846 1.54006195 C94.47204343 2.47427853 94.47204343 2.47427853 93.65481567 3.42736816 C93.12731279 4.04250023 92.59980991 4.65763229 92.0563221 5.29140472 C90.68905339 6.88867637 89.32655446 8.49002842 87.96484375 10.09204102 C73.62866322 26.62593955 62.88145069 35.3491014 40.58007812 38.62329102 C36.39695148 39.28835185 32.4213336 40.39515393 28.37158203 41.61352539 C26.96869661 42.01333868 25.56502903 42.41041629 24.16064453 42.80493164 C23.43006836 43.01134277 22.69949219 43.21775391 21.94677734 43.43041992 C16.88994908 44.8402451 11.81695684 46.19090526 6.74658203 47.55102539 C-1.25840636 49.6998179 -9.25949485 51.86143102 -17.25341797 54.05102539 C-23.51305794 55.76514095 -29.7781108 57.45759084 -36.05029297 59.12524414 C-37.03567047 59.38732918 -37.03567047 59.38732918 -38.04095459 59.65470886 C-41.26846558 60.51274185 -44.4964516 61.36889921 -47.72509766 62.22265625 C-55.0696485 64.17166519 -62.37279479 66.21392184 -69.65771484 68.37475586 C-72.50341797 69.11352539 -72.50341797 69.11352539 -75.50341797 69.11352539 C-76.04834048 51.8721771 -67.03259051 35.40369942 -55.50341797 23.11352539 C-40.63723901 7.64262051 -21.30724494 -0.07825205 0 0 Z " fill="#3DBEE8" transform="translate(166.50341796875,90.886474609375)"/>
<path d="M0 0 C1.31476318 -0.00630432 2.62952637 -0.01260864 3.98413086 -0.019104 C5.42561985 -0.01552433 6.86710762 -0.0114224 8.30859375 -0.00683594 C9.78068099 -0.00818261 11.2527678 -0.01012317 12.72485352 -0.01263428 C15.81172923 -0.01558543 18.89848928 -0.01128825 21.98535156 -0.00195312 C25.94681504 0.0094415 29.90800753 0.00288197 33.86946106 -0.00909805 C36.90972952 -0.01631694 39.94993348 -0.01402861 42.99020386 -0.00884247 C44.45108065 -0.00750605 45.91196325 -0.00915344 47.37283325 -0.01380157 C49.4126169 -0.018867 51.45242101 -0.00978073 53.4921875 0 C55.23520142 0.00238678 55.23520142 0.00238678 57.01342773 0.00482178 C59.74609375 0.25878906 59.74609375 0.25878906 61.74609375 2.25878906 C61.98660278 4.89102173 61.98660278 4.89102173 61.97314453 8.26904297 C61.97299347 9.53019928 61.97284241 10.79135559 61.97268677 12.09072876 C61.96247273 13.47227128 61.95204072 14.85381221 61.94140625 16.23535156 C61.93767663 17.64496663 61.93482942 19.05458429 61.93283081 20.46420288 C61.9251903 24.17638288 61.90553836 27.88840667 61.88342285 31.6005249 C61.86297334 35.38763312 61.85383102 39.17476656 61.84375 42.96191406 C61.82229275 50.39427699 61.78815191 57.82651115 61.74609375 65.25878906 C52.91455387 65.30507145 44.08305555 65.34063732 35.25142097 65.36241341 C31.15080618 65.37286333 27.05027417 65.38704443 22.94970703 65.40966797 C18.99453794 65.43135346 15.03944864 65.44334858 11.0842247 65.44854355 C9.57309589 65.45224705 8.06197158 65.45947881 6.55087662 65.47024918 C4.43893143 65.48470729 2.32731851 65.48676943 0.21533203 65.48583984 C-0.98823944 65.49028107 -2.19181091 65.49472229 -3.43185425 65.4992981 C-6.25390625 65.25878906 -6.25390625 65.25878906 -8.25390625 63.25878906 C-8.50787354 60.71594238 -8.50787354 60.71594238 -8.51269531 57.46386719 C-8.51899963 56.24920776 -8.52530396 55.03454834 -8.53179932 53.78308105 C-8.52775085 52.4653772 -8.52370239 51.14767334 -8.51953125 49.79003906 C-8.52087801 48.430053 -8.52281864 47.07006741 -8.52532959 45.71008301 C-8.52828034 42.85859599 -8.52398489 40.00723419 -8.51464844 37.15576172 C-8.50325379 33.49696129 -8.50981354 29.83845427 -8.52179337 26.17966461 C-8.52901337 23.37101014 -8.52672342 20.56242547 -8.52153778 17.75376892 C-8.51955086 15.74734304 -8.52563488 13.74091447 -8.53179932 11.73449707 C-8.525495 10.51983765 -8.51919067 9.30517822 -8.51269531 8.05371094 C-8.51110413 6.98052612 -8.50951294 5.90734131 -8.50787354 4.80163574 C-7.96959165 -0.58791004 -4.56320517 0.00624858 0 0 Z " fill="#DF125C" transform="translate(360.25390625,192.7412109375)"/>
</svg>
